<svg xmlns="http://www.w3.org/2000/svg" viewBox="0 0 112.94 138.62"><defs><style>.cls-1{fill:#2b2b2b;stroke:#2b2b2b;stroke-miterlimit:10;}</style></defs><title>Asset 16</title><g id="Layer_2" data-name="Layer 2"><g id="Layer_1-2" data-name="Layer 1"><path class="cls-1" d="M6.55,138"/><path class="cls-1" d="M6.36,138"/><path class="cls-1" d="M6.11,138.11l0,0"/><path class="cls-1" d="M6.39,47.16l50.54,71.37,55-79h-6l-49,72L6,39.5H1Z"/><path class="cls-1" d="M6.56,118"/><path class="cls-1" d="M6.37,118"/><path class="cls-1" d="M6.12,118.11l0,0"/><path class="cls-1" d="M6.4,27.16,56.94,98.53l55-79h-6l-49,72L6,19.5H1Z"/><path class="cls-1" d="M6.57,99"/><path class="cls-1" d="M6.38,99"/><path class="cls-1" d="M6.13,99.11l0,0"/><path class="cls-1" d="M6.41,8.16,56.95,79.53l55-79h-6l-49,72L6,.5H1Z"/></g></g></svg>