<svg xmlns="http://www.w3.org/2000/svg" viewBox="0 0 112.92 138.62"><defs><style>.cls-1{fill:#2b2b2b;stroke:#2b2b2b;stroke-miterlimit:10;}</style></defs><title>Asset 17</title><g id="Layer_2" data-name="Layer 2"><g id="Layer_1-2" data-name="Layer 1"><path class="cls-1" d="M106.33.59"/><path class="cls-1" d="M106.52.6"/><path class="cls-1" d="M106.77.51l0,0"/><path class="cls-1" d="M106.53,91.46,56,20.12l-55,79H7l49-72,51,72h5Z"/><path class="cls-1" d="M106.33,20.59"/><path class="cls-1" d="M106.52,20.6"/><path class="cls-1" d="M106.77,20.51l0,0"/><path class="cls-1" d="M106.53,111.46,56,40.12l-55,79H7l49-72,51,72h5Z"/><path class="cls-1" d="M106.33,39.59"/><path class="cls-1" d="M106.52,39.6"/><path class="cls-1" d="M106.77,39.51l0,0"/><path class="cls-1" d="M106.53,130.46,56,59.12l-55,79H7l49-72,51,72h5Z"/></g></g></svg>